<?xml version="1.0" encoding="UTF-8" standalone="no"?>
<svg
   xmlns:dc="http://purl.org/dc/elements/1.1/"
   xmlns:cc="http://creativecommons.org/ns#"
   xmlns:rdf="http://www.w3.org/1999/02/22-rdf-syntax-ns#"
   xmlns:svg="http://www.w3.org/2000/svg"
   xmlns="http://www.w3.org/2000/svg"
   version="1.1"
   id="svg2"
   viewBox="0 0 2048 2048"
   height="2048"
   width="2048">
  <defs
     id="defs4" />
  <metadata
     id="metadata7">
    <rdf:RDF>
      <cc:Work
         rdf:about="">
        <dc:format>image/svg+xml</dc:format>
        <dc:type
           rdf:resource="http://purl.org/dc/dcmitype/StillImage" />
        <dc:title></dc:title>
      </cc:Work>
    </rdf:RDF>
  </metadata>
  <g
     transform="translate(0,-5208.6928)"
     style="opacity:1"
     id="layer2">
    <path
       id="rect4148"
       d="m 994.52622,5310.3656 c -1.55225,-9e-4 -2.90136,0.048 -4.01218,0.1576 14.18466,1.9602 12.58246,2.793 4.57035,3.1677 13.63381,2.229 13.16821,3.7286 3.74206,4.7649 7.31345,2.1626 0.17927,3.8519 -16.76741,5.2192 4.83086,2.951 8.95383,5.826 -11.53558,6.0503 7.08081,6.7968 3.151,7.6052 -12.45624,2.0629 4.74793,5.2975 13.02538,11.7981 1.09152,11.4086 2.17293,2.9653 9.75537,6.1107 1.00433,8.7119 4.24255,2.4373 4.82705,4.3397 -7.13373,4.4058 3.57316,11.8523 -8.69138,9.9102 -16.59831,11.7636 6.71227,2.9576 29.88781,6.9192 6.99696,8.0717 6.92137,3.1522 7.08291,4.8811 -1.1175,4.8498 12.35267,6.1367 6.21975,8.9124 -3.05689,11.1165 7.82693,3.279 2.14299,3.7304 -7.00332,3.4569 13.99242,6.8286 2.92902,10.0126 -3.96312,13.8035 7.79449,-0.3328 12.07504,0.6391 6.01798,5.4511 2.68837,1.7707 12.26859,2.2722 1.12616,6.5906 7.49502,1.2528 9.75673,3.4567 -0.19626,7.8819 5.41965,1.2992 12.07155,2.2793 7.13551,6.2633 10.96106,2.9816 0.73342,9.4578 -3.32013,10.5076 1.56948,0.01 7.08855,6.2477 2.2563,9.0495 6.94746,2.5493 5.66869,10.101 2.07162,12.41 9.02692,5.4561 10.24448,10.7199 3.6526,15.8174 3.7379,4.1076 4.90596,7.9474 2.62977,11.4726 8.69217,12.6031 4.89227,21.3717 7.14648,31.2231 8.66311,37.6032 16.23687,68.6659 28.84904,110.3317 19.52327,64.4977 70.43717,189.4952 70.43717,189.4952 6.1701,16.5991 23.242,51.5357 24.4374,85.2755 1.2881,36.3593 10.8959,81.4106 11.1812,113.778 1.6607,4.8513 -1.3465,8.1937 -1.9557,11.6358 -0.505,2.8533 1.7459,6.4956 -2.6815,8.288 3.599,3.3244 2.1031,6.2196 -1.8793,7.5201 1.0956,1.8226 0.4008,4.4171 -2.2694,4.4756 2.4361,1.8004 4.8413,3.7407 -3.0965,3.9213 1.9505,3.0916 3.7141,6.1458 0.1525,8.135 1.6745,2.6599 0.9786,4.4081 -4.6438,4.2615 5.6564,5.8098 1.4301,7.4584 -3.409,8.8489 7.772,7.3352 2.1923,7.7791 -7.3651,6.1701 1.6912,1.8748 15.1315,5.9252 2.1919,5.0908 -0.6101,1.5614 11.7278,5.7886 -5.8669,3.8532 4.0257,3.7742 8.5433,7.6304 2.7294,9.7648 8.5864,3.8416 -1.6116,5.7401 -8.5827,7.9724 13.7069,0.982 8.8097,3.7082 5.053,6.3274 10.0751,4.769 -0.5585,4.5139 -4.1854,5.9586 7.1411,1.0379 13.7699,2.1196 1.6321,4.81 5.4287,2.6431 8.234,5.2863 0.2715,7.9294 7.3008,2.0178 7.1824,5.1485 3.252,8.851 7.4093,-0.144 8.312,1.6639 -1.1458,6.58 4.8867,1.0569 5.8794,2.7129 3.4488,4.8955 9.0053,-0.8048 10.0486,1.4348 -0.073,7.9432 4.842,1.5468 8.0825,3.3939 4.006,6.613 5.1091,-0.5059 13.262,-2.2292 -3.2693,5.9211 6.0439,0.4147 11.361,1.1287 7.999,5.4164 6.0759,-3.2157 4.4443,-0.084 1.0399,4.5075 10.3474,-2.2202 3.7246,2.3477 4.0245,4.1466 8.1971,-0.1439 6.3095,3.2031 -0.079,8.1081 7.7435,-1.0563 9.4509,2.003 4.8104,9.3903 6.8878,-7.9644 5.703,0.2166 6.8529,3.7281 -64.605,-1.5928 -133.69593,34.8708 -164.13077,50.3322 -58.95046,29.948 -119.32927,66.9498 -182.4947,103.1137 -77.37227,17.7039 -144.94108,13.7214 -293.7563,189.4657 -30.34121,24.0816 -65.42209,45.4551 -91.02397,72.245 1.52184,1.0686 4.95179,0.5459 6.489,1.3997 10.09415,5.6068 18.60084,8.3178 29.07761,8.5682 -16.73993,23.1159 -48.25819,61.8797 -50.2197,69.3479 3.97574,0 12.75666,-8.0113 19.78912,-13.1073 -14.45012,27.3243 -31.79524,55.062 -42.75178,81.8873 -15.50072,17.7744 -37.93682,40.6748 -41.75372,49.8133 3.3123,-0.5025 3.8053,0.7567 11.1315,-2.2546 -9.8566,18.6855 -23.8691,37.3711 -29.1798,56.0565 4.6852,-1.966 6.3076,-2.8757 13.8064,-5.9672 2.5342,4.3588 6.9322,4.5239 11.6937,3.8714 -12.8415,10.8301 -15.6486,16.1024 7.9257,6.7637 -18.9973,21.4603 -21.1079,27.1989 -24.2821,33.9274 -13.3475,11.7737 -7.9123,18.8559 5.1793,13.6245 -7.6026,7.7983 -17.1346,16.6723 -3.9285,12.8187 -11.6533,15.4513 17.7352,2.1259 38.89363,-5.4287 -7.60783,13.2499 8.0777,4.1773 18.46383,0.183 -2.20305,6.6825 16.8585,-3.2095 45.11027,-17.8554 9.95548,2.2828 28.78211,6.6524 53.53061,7.6145 44.63972,1.7354 105.82347,1.4664 149.9411,0.8964 31.16581,-0.4026 152.09093,-56.8024 210.35212,-70.3834 1.42007,1.3212 5.523,0.5397 6.90402,1.7328 6.24481,5.395 9.0881,10.531 11.04553,1.839 2.99191,12.0487 5.91789,25.553 9.67984,20.6612 -0.24373,18.8951 6.92231,36.7316 17.79486,54.0386 0,0 -3.76816,32.9064 -1.77261,49.1929 0.72589,5.9242 2.51034,11.7595 4.94612,17.2084 4.4058,9.8558 25.51562,55.4978 25.53988,55.5503 -0.48612,-0.071 -11.76396,4.9163 -17.38735,13.763 -5.10615,8.033 -4.31643,27.2762 -2.97436,25.3973 0,0 3.15726,-3.9826 5.43733,-4.7591 7.12366,-2.4261 22.5326,1.409 22.5326,1.409 1.56703,8.8224 2.72008,17.7826 5.39926,26.2342 -10.88325,0.046 -22.72113,-1.3397 -32.1807,0.8416 -3.67415,-1.9676 -6.8649,-4.2979 -13.59278,-3.9752 -4.95383,-5.2182 -15.00959,-6.8615 -13.1639,1.6086 1.22055,0.8727 3.6115,0.1846 3.65606,2.6252 -0.51957,4.4163 5.48343,12.1805 9.84377,13.4883 5.70242,1.7103 10.86596,2.4066 22.37792,6.6108 15.57243,5.6871 21.14189,8.7287 33.54467,15.0519 13.58616,6.9266 20.09319,6.5022 30.13969,9.7532 0,0 24.82313,9.708 37.71038,12.9636 15.06302,3.8052 30.5441,5.8781 45.98472,7.599 12.4894,1.3919 25.2326,0.1771 37.6365,2.1934 10.0961,1.6411 19.4761,6.711 29.6219,8.0094 9.1946,1.1767 27.8072,-0.2644 27.8072,-0.2644 4.5012,-0.043 8.8815,1.9635 12.9169,0.5149 l 7.3433,1.3789 c -2.7027,-10.3208 -8.1226,-12.4896 -13.9692,-13.3786 -1.095,-5.166 -3.6277,-10.6191 -2.9587,-15.4323 4.4544,-9.1771 24.6548,-12.3623 27.432,-14.7033 3.4567,-2.9139 5.3613,-6.5823 14.3927,-7.3329 -2.5727,-6.4403 -6.1024,-11.471 -16.9002,-5.3288 -2.421,1.3772 -5.1607,2.0523 -8.347,1.3882 -5.3442,-1.1139 -10.9286,-2.4245 -16.2127,-4.1744 -27.6683,-9.163 -54.5175,-17.4797 -81.8954,-26.378 0.3682,-2.0638 2.9982,-3.3738 5.7046,-4.6581 -2.6744,-11.6339 -11.1616,-2.923 -18.3363,1.1942 -3.85755,0.9812 -6.6845,1.9621 -8.95315,2.9432 -18.66258,2.7202 -38.77817,7.257 -55.95144,8.1156 -3.49292,-8.9289 -8.47285,-17.6096 -9.83626,-26.8934 0,0 18.1904,-3.6701 27.42275,-4.1912 12.18882,-0.6879 24.423,2.338 36.59695,1.424 7.66428,-0.5754 14.96225,-4.2996 22.64805,-4.3262 3.8971,-0.014 7.6017,2.1548 11.4987,2.1143 3.6102,-0.037 10.6097,-2.1795 10.6097,-2.1795 2.2094,-0.3958 4.4747,-0.6525 7.4662,0.9068 l 0.1247,-2.8601 c 0,0 21.4431,-5.3017 39.1263,-9.7064 4.8911,-1.2183 10.5399,-4.3086 14.3223,-5.2584 2.5066,-0.6294 5.0729,0.396 8.3246,-0.43 4.1125,-1.0447 7.6498,-1.9469 7.6498,-1.9469 l 6.0786,-0.2436 c -0.8626,-10.8261 -11.9201,-13.3019 -22.7825,-10.6958 l -52.0022,-4.2373 c -2.4389,-2.6147 -4.7518,-5.2295 -9.8975,-7.8443 3.4184,-0.3855 5.1881,-1.1831 7.0634,-1.9544 0,0 -4.5861,-3.9891 -11.2083,-6.2379 -6.5195,-4.0108 -14.33,-6.1273 -20.9713,-6.1929 -4.5709,-0.045 -8.3336,4.2886 -12.88739,4.6875 -23.39269,2.0493 -49.37705,1.7864 -70.96527,-2.852 -5.05089,-1.0852 -6.56753,-8.1199 -8.70435,-12.8233 -10.91256,-24.0198 -22.63982,-56.2933 -29.31196,-68.3032 2.90511,-7.6963 6.88661,-15.4493 -4.85897,-22.3745 0.84363,-3.909 1.98964,-7.7171 -1.79746,-13.1696 1.30365,-6.3973 2.60751,-15.4507 3.9112,-24.1379 8.54718,0.5688 10.25908,-36.294 34.14956,-56.5073 1.46173,-1.2367 26.18231,-26.584 68.03422,-53.9739 47.94522,-31.3776 132.04762,-87.5327 168.83672,-116.4224 67.5037,-53.0092 107.404,-103.2625 130.9214,-166.1637 12.725,-34.0348 26.1171,-99.2205 30.9369,-149.1861 3.9282,-40.7227 2.0543,-58.0273 -3.2884,-84.3953 -10.7326,-52.9683 -37.5571,-119.231 -71.479,-166.5233 0,0 -15.5853,-45.9576 -21.597,-69.4409 -5.3384,-20.8535 -7.3826,-42.4643 -12.8106,-63.2947 -6.6919,-25.6805 -17.2405,-50.2332 -24.2966,-75.8161 -7.137,-25.8762 -11.0653,-52.5671 -18.211,-78.4408 -11.4635,-41.5075 -35.3678,-97.9068 -39.5079,-122.9946 -4.908,-29.741 9.145,-58.3269 26.9651,-71.3566 0,0 28.1799,1.3173 41.4461,-2.6379 1.8735,-0.5586 3.5187,-1.7457 5.1014,-2.8935 4.4609,-3.2355 10.9732,-5.7681 12.219,-11.1362 0.5264,-2.2684 0.933,-4.0171 -0.7718,-5.6036 -3.5258,-3.2814 -13.1038,-1.0871 -15.5789,-5.2191 -0.8245,-1.3765 -0.2094,-3.5676 0.8976,-4.7291 2.3556,-2.4717 6.572,-1.9654 9.9597,-2.3914 9.3489,-1.1754 18.9781,-2.0031 28.265,-0.4104 17.6312,3.0239 34.2827,10.7177 50.334,18.6145 42.6519,20.9835 80.6951,50.265 120.8063,75.7717 40.8274,25.9621 81.1264,52.749 121.996,78.6445 40.6515,25.7574 80.6845,52.5917 122.5559,76.3144 26.0782,14.7748 53.3368,27.3622 80.005,41.0432 1.0788,0.5534 3.2365,1.66 3.2365,1.66 8.7853,4.507 9.2458,14.7167 20.177,14.1654 0,0 -2.4209,5.7721 -1.046,9.322 5.093,2.2864 9.72,-7.072 11.1951,-12.4563 2.3922,-8.7317 0.7222,-19.1395 -4.1306,-26.7826 -3.7667,-5.9326 -12.1413,-8.7338 -18.1452,-12.3858 -3.2674,-1.9875 -7.0699,-3.7734 -9.8518,-6.3978 -36.5896,-34.5169 -72.8419,-68.2928 -109.6437,-102.4672 -106.5212,-98.9165 -222.1329,-186.6129 -330.8889,-278.582 -23.1845,-19.6058 -43.8989,-41.9581 -65.8483,-62.9374 4.7212,-3.9872 -3.4439,-12.8907 -8.5814,-18.9043 0,0 -25.7365,-38.2283 -45.9051,-51.5479 -14.4661,-9.5536 -33.5983,-19.8191 -50.8252,-19.127 -18.618,0.7479 -37.0925,4.29 -55.7252,4.4035 -21.3327,0.13 -55.3262,-4.5543 -70.33151,-4.564 z m 148.01268,53.4383 c 3.7432,-0.011 7.2412,0.2896 10.6109,0.419 14.4241,0.5542 24.7197,9.7461 32.0468,19.5069 5.698,7.5907 7.1066,16.2418 7.1066,20.5695 0,2.3796 -2.5962,4.1961 -5.0899,6.3978 -2.7325,2.4127 -5.5958,5.1611 -10.9052,6.5606 -9.9879,2.6328 -24.2316,2.7058 -31.3911,0.7319 -8.9276,-2.4614 -17.8049,-7.2721 -22.4177,-14.7391 -6.4916,-10.5081 -5.9707,-21.8769 -5.9707,-27.66 0,-2.7931 1.6379,-5.4228 4.7025,-6.9167 8.1482,-3.9719 15.0691,-4.8523 21.3078,-4.8699 z m 8.8798,12.1376 c -0.8313,-0.01 -1.6865,0.017 -2.5657,0.083 -10.8701,0.8156 -17.2044,5.9825 -17.2044,14.1434 0,8.1609 7.1483,16.6762 18.0489,16.6762 6.6498,0 10.4154,1.3084 14.4816,-2.1582 1.3291,-1.1331 3.7477,-1.6099 5.1753,-3.8811 1.3644,-2.1707 1.8048,-6.1268 1.7692,-7.6816 -0.1979,-8.6403 -7.2352,-17.0358 -19.7049,-17.1818 z m 59.043,34.1911 c 0,0 -5.3155,1.6412 -12.7639,6.4082 -6.3936,4.0919 -14.833,10.0016 -24.7577,13.0946 -5.4951,1.7125 -12.2236,2.5448 -18.3658,3.7744 -0.2069,0.041 -0.3411,1.4242 1.1089,1.9423 2.618,0.9355 7.7027,1.4137 7.7086,2.8417 0.01,2.3624 -9.3566,4.5039 -9.9447,4.6482 -0.544,0.1334 -9.2748,0.7935 -10.2981,-0.8629 -0.6383,-1.0332 3.3472,-1.5564 4.5403,-2.9218 1.3874,-1.5877 0.051,-3.9464 -0.3099,-3.8264 -1.6515,0.5491 -3.1752,1.1868 -4.5173,1.9504 -8.0796,4.5969 -13.2346,10.5608 -15.4075,15.2032 -5.4359,11.6139 13.1056,21.1113 14.9417,21.7828 6.9562,2.5438 61.8648,26.2172 91.48,41.9858 31.7294,16.8943 62.0578,36.3683 92.0347,56.2066 35.0128,23.1711 68.9882,47.9154 102.4423,73.2851 47.0431,35.6748 138.0951,110.9124 138.0951,110.9124 0,0 -174.4978,-128.5036 -263.4452,-188.7165 -49.5964,-33.5743 -144.1676,-78.1184 -171.354,-85.0158 -9.6556,-2.4497 -14.9003,12.7245 -31.9717,31.6768 -5.4683,6.0708 -17.2114,31.8271 -21.358,60.011 -2.6362,17.9178 -2.5432,36.6476 -1.667,49.1524 -1.4665,-11.8882 -2.7856,-29.6789 -1.0396,-48.4078 2.0719,-22.2245 9.764,-46.2487 21.713,-61.4125 10.7976,-13.7025 17.2245,-32.91 23.4354,-41.7121 7.6472,-10.8378 -1.782,-20.3319 20.4287,-36.9889 5.4606,-4.0953 19.2186,-3.9085 30.8115,-7.3791 11.3505,-3.398 20.558,-10.4691 24.1702,-13.0386 5.3122,-3.779 14.29,-4.5935 14.29,-4.5935 z"
       style="color:#000000;display:inline;overflow:visible;visibility:visible;opacity:1;fill:#000000;fill-opacity:1;fill-rule:nonzero;stroke:none;stroke-width:0.29553238;stroke-linecap:round;stroke-linejoin:miter;stroke-miterlimit:4;stroke-dasharray:none;stroke-dashoffset:0;stroke-opacity:1;marker:none;enable-background:accumulate" />
  </g>
</svg>
